<svg width="154" height="55" viewBox="0 0 154 55" fill="none" xmlns="http://www.w3.org/2000/svg">
<path d="M26.28 34.28C26.3067 34.44 26.32 34.6 26.32 34.76C26.3467 34.8933 26.36 35.0533 26.36 35.24C26.36 35.56 26.2667 35.8533 26.08 36.12C26 36.2533 25.8933 36.3867 25.76 36.52C25.6267 36.6267 25.4667 36.72 25.28 36.8C24.6133 37.1733 23.9067 37.3067 23.16 37.2C22.7867 37.0933 22.4533 36.92 22.16 36.68C22.1067 36.6267 22.0667 36.6 22.04 36.6C22.0133 36.5733 21.9867 36.5333 21.96 36.48C21.9333 36.4533 21.9067 36.4267 21.88 36.4C21.8533 36.3467 21.8133 36.3067 21.76 36.28C21.6267 36.1467 21.52 36.0267 21.44 35.92C21.36 35.7867 21.28 35.6533 21.2 35.52C21.1467 35.3867 21.08 35.2667 21 35.16C20.9467 35.0267 20.88 34.8933 20.8 34.76C20.7467 34.6533 20.6933 34.56 20.64 34.48C20.5867 34.3733 20.5467 34.2667 20.52 34.16C20.4133 33.92 20.3467 33.7067 20.32 33.52L19.48 31.56C17.64 31.56 15.8 31.5733 13.96 31.6C12.1467 31.6 10.32 31.5867 8.48 31.56L7.64 33.52C7.58667 33.6267 7.54667 33.7333 7.52 33.84C7.52 33.9467 7.49333 34.0533 7.44 34.16C7.38667 34.2667 7.33333 34.3733 7.28 34.48C7.25333 34.56 7.21333 34.6533 7.16 34.76C7.08 34.8933 7 35.0267 6.92 35.16C6.86667 35.2667 6.8 35.3867 6.72 35.52C6.66667 35.6533 6.6 35.7867 6.52 35.92C6.44 36.0267 6.33333 36.1467 6.2 36.28C6.14667 36.3067 6.10667 36.3467 6.08 36.4C6.05333 36.4267 6.02667 36.4533 6 36.48C5.97333 36.5333 5.94667 36.5733 5.92 36.6C5.89333 36.6 5.85333 36.6267 5.8 36.68C5.50667 36.92 5.17333 37.0933 4.8 37.2C4.05333 37.3067 3.34667 37.1733 2.68 36.8C2.49333 36.72 2.33333 36.6267 2.2 36.52C2.06667 36.3867 1.96 36.2533 1.88 36.12C1.69333 35.8533 1.6 35.56 1.6 35.24C1.6 35.0533 1.6 34.8933 1.6 34.76C1.62667 34.6 1.65333 34.44 1.68 34.28C1.73333 34.04 1.8 33.8 1.88 33.56C1.96 33.32 2 33.2 2 33.2L10.32 12.72L10.56 12.08C10.6133 11.92 10.68 11.7733 10.76 11.64C10.84 11.5067 10.9067 11.3467 10.96 11.16C11.0933 10.8133 11.24 10.5067 11.4 10.24C11.48 10.08 11.5733 9.93333 11.68 9.8C11.7867 9.66666 11.8933 9.53333 12 9.4C12.16 9.18667 12.3867 9.01333 12.68 8.88C13.0533 8.74667 13.48 8.68 13.96 8.68C14.4667 8.68 14.9067 8.74667 15.28 8.88C15.5733 9.01333 15.8 9.18667 15.96 9.4C16.1467 9.64 16.3467 9.92 16.56 10.24C16.72 10.5067 16.8667 10.8133 17 11.16C17.0533 11.3467 17.12 11.5067 17.2 11.64C17.28 11.7733 17.3467 11.92 17.4 12.08L17.64 12.72L25.96 33.2C25.96 33.2 26 33.32 26.08 33.56C26.16 33.8 26.2267 34.04 26.28 34.28ZM16.8 24.48C16.4533 23.7067 16.0933 22.9067 15.72 22.08C15.3733 21.2533 15 20.4133 14.6 19.56C14.4933 19.32 14.3867 19.08 14.28 18.84C14.1733 18.5733 14.0667 18.32 13.96 18.08C13.88 18.32 13.7867 18.5733 13.68 18.84C13.5733 19.08 13.4667 19.32 13.36 19.56C12.96 20.4133 12.5733 21.2533 12.2 22.08C11.8533 22.9067 11.5067 23.7067 11.16 24.48L10.44 26.24H17.52L16.8 24.48ZM40.5288 32.2C40.9288 32.2 41.3688 32.2133 41.8488 32.24C42.3554 32.24 42.8354 32.28 43.2888 32.36C43.7688 32.4133 44.1954 32.52 44.5688 32.68C44.9688 32.84 45.2488 33.0533 45.4088 33.32C45.8088 34.0133 45.9288 34.64 45.7688 35.2C45.6354 35.7333 45.3421 36.1467 44.8888 36.44C44.4088 36.7867 43.8488 37.0133 43.2088 37.12C42.5688 37.2533 41.9821 37.3067 41.4488 37.28C40.3554 37.2267 39.1954 37.2133 37.9688 37.24C36.7421 37.2933 35.5821 37.3333 34.4888 37.36C34.1154 37.36 33.7154 37.36 33.2888 37.36C32.8888 37.3867 32.5021 37.36 32.1288 37.28C31.7554 37.2267 31.3954 37.1067 31.0488 36.92C30.7288 36.7333 30.4488 36.44 30.2088 36.04C29.8888 35.5333 29.8088 35.0267 29.9688 34.52C30.1554 33.9867 30.3688 33.4933 30.6087 33.04C30.9821 32.3733 31.4221 31.72 31.9288 31.08C32.4621 30.44 32.9154 29.8933 33.2888 29.44L38.2888 22.88L34.2488 23C33.9288 23 33.5821 23 33.2088 23C32.8621 23 32.5021 22.9733 32.1288 22.92C31.7554 22.84 31.4088 22.7467 31.0888 22.64C30.7688 22.5333 30.4888 22.3733 30.2488 22.16C30.0088 21.92 29.8354 21.6533 29.7288 21.36C29.6221 21.04 29.5688 20.72 29.5688 20.4C29.5954 20.08 29.6621 19.7733 29.7688 19.48C29.9021 19.16 30.0754 18.88 30.2888 18.64C30.4488 18.48 30.6488 18.3467 30.8888 18.24C31.1554 18.1333 31.4488 18.0533 31.7688 18C32.0888 17.9467 32.4088 17.92 32.7288 17.92C33.0754 17.8933 33.3954 17.88 33.6888 17.88C34.2754 17.88 34.9288 17.88 35.6488 17.88C36.3688 17.88 37.0621 17.88 37.7288 17.88C38.4221 17.8533 39.0621 17.84 39.6488 17.84C40.2621 17.8133 40.7554 17.8 41.1288 17.8C41.6088 17.8 42.0888 17.7867 42.5688 17.76C43.0488 17.7333 43.5021 17.7733 43.9288 17.88C44.3554 17.9867 44.7154 18.1867 45.0088 18.48C45.3288 18.7467 45.5288 19.1867 45.6088 19.8C45.6621 20.2 45.6354 20.6 45.5288 21C45.4488 21.3733 45.3021 21.7467 45.0888 22.12C44.9021 22.4667 44.6754 22.8267 44.4088 23.2C44.1421 23.5467 43.8754 23.88 43.6088 24.2L37.4088 32.2H40.5288ZM58.6209 29.96C58.1143 29.64 57.5409 29.3867 56.9009 29.2C56.2876 29.0133 55.6476 28.84 54.9809 28.68C54.3409 28.52 53.7143 28.3467 53.1009 28.16C52.4876 27.9467 51.9276 27.6533 51.4209 27.28C50.3276 26.4533 49.6876 25.44 49.5009 24.24C49.3409 23.0133 49.6076 21.7867 50.3009 20.56C50.6743 19.92 51.1676 19.4 51.7809 19C52.3943 18.5733 53.0609 18.2533 53.7809 18.04C54.5276 17.8 55.2876 17.6667 56.0609 17.64C56.8343 17.6133 57.5676 17.6533 58.2609 17.76C58.7143 17.84 59.1943 17.96 59.7009 18.12C60.2076 18.2533 60.6743 18.44 61.1009 18.68C61.5543 18.92 61.9543 19.2267 62.3009 19.6C62.6743 19.9467 62.9409 20.3867 63.1009 20.92C63.2076 21.2667 63.2209 21.6 63.1409 21.92C63.0876 22.24 62.9543 22.5067 62.7409 22.72C62.5543 22.9333 62.3009 23.0933 61.9809 23.2C61.6876 23.3067 61.3676 23.3333 61.0209 23.28C60.6209 23.2 60.2476 23.08 59.9009 22.92C59.5543 22.76 59.2076 22.5867 58.8609 22.4C58.5143 22.2133 58.1543 22.0533 57.7809 21.92C57.4343 21.7867 57.0609 21.72 56.6609 21.72C56.0476 21.6933 55.5409 21.8 55.1409 22.04C54.7409 22.28 54.4609 22.5733 54.3009 22.92C54.1676 23.2667 54.1809 23.64 54.3409 24.04C54.5276 24.44 54.9009 24.7867 55.4609 25.08C55.9676 25.3467 56.5276 25.56 57.1409 25.72C57.7543 25.88 58.3543 26.04 58.9409 26.2C59.5543 26.36 60.1409 26.5467 60.7009 26.76C61.2876 26.9733 61.8076 27.2667 62.2609 27.64C63.1409 28.36 63.6743 29.2 63.8609 30.16C64.0743 31.12 64.0209 32.0667 63.7009 33C63.3809 33.9333 62.8209 34.76 62.0209 35.48C61.2476 36.2 60.3276 36.68 59.2609 36.92C58.4876 37.08 57.6476 37.16 56.7409 37.16C55.8609 37.16 54.9809 37.0667 54.1009 36.88C53.2476 36.6933 52.4209 36.4 51.6209 36C50.8476 35.6 50.1943 35.0933 49.6609 34.48C49.2876 34.0533 49.0876 33.5733 49.0609 33.04C49.0609 32.48 49.1676 32 49.3809 31.6C49.6209 31.1733 49.9543 30.88 50.3809 30.72C50.8076 30.56 51.2876 30.6533 51.8209 31C52.2476 31.2933 52.7543 31.5867 53.3409 31.88C53.9276 32.1467 54.5143 32.36 55.1009 32.52C55.6876 32.68 56.2476 32.76 56.7809 32.76C57.3409 32.76 57.8209 32.64 58.2209 32.4C58.8076 32.0267 59.1143 31.6 59.1409 31.12C59.1676 30.6133 58.9943 30.2267 58.6209 29.96ZM82.985 22.24C83.7583 22.7467 84.4117 23.3467 84.945 24.04C85.505 24.7067 85.945 25.5333 86.265 26.52C86.6117 27.6133 86.785 28.72 86.785 29.84C86.8117 30.9333 86.6117 31.96 86.185 32.92C85.785 33.8533 85.1317 34.68 84.225 35.4C83.345 36.0933 82.185 36.5867 80.745 36.88C79.9717 37.0667 79.065 37.2133 78.025 37.32C76.985 37.4267 76.0517 37.48 75.225 37.48C74.185 37.5067 73.105 37.5067 71.985 37.48C70.8917 37.48 69.825 37.3733 68.785 37.16C68.3317 37.0267 67.9983 36.8 67.785 36.48C67.5983 36.1333 67.465 35.7467 67.385 35.32C67.2783 35.08 67.225 34.84 67.225 34.6V11.88C67.225 11.1333 67.3717 10.56 67.665 10.16C67.985 9.73333 68.3983 9.42667 68.905 9.24C69.4117 9.02667 69.985 8.90667 70.625 8.88C71.265 8.82667 71.9317 8.8 72.625 8.8C73.1583 8.8 73.6917 8.8 74.225 8.8C74.785 8.77333 75.345 8.77333 75.905 8.8C76.785 8.82666 77.6917 8.90666 78.625 9.04C79.585 9.14666 80.4917 9.36 81.345 9.68C81.745 9.81333 82.1717 10 82.625 10.24C83.0783 10.4533 83.4383 10.72 83.705 11.04C84.5583 11.8133 85.185 12.72 85.585 13.76C86.0117 14.7733 86.1983 15.8133 86.145 16.88C86.0917 17.92 85.7983 18.92 85.265 19.88C84.7583 20.84 83.9983 21.6267 82.985 22.24ZM75.985 32.84C76.8117 32.7867 77.6517 32.6933 78.505 32.56C79.3583 32.4267 79.945 32.1733 80.265 31.8C80.6117 31.3733 80.8517 30.88 80.985 30.32C81.145 29.7333 81.185 29.1467 81.105 28.56C81.0517 27.9467 80.8783 27.3733 80.585 26.84C80.3183 26.28 79.9583 25.84 79.505 25.52C78.8917 25.04 78.185 24.7333 77.385 24.6C76.585 24.44 75.7983 24.36 75.025 24.36C74.6517 24.36 74.305 24.3733 73.985 24.4C73.6917 24.4 73.425 24.44 73.185 24.52C72.9717 24.5733 72.8117 24.6933 72.705 24.88C72.5983 25.0667 72.545 25.3467 72.545 25.72C72.5983 26.4133 72.5983 27.1067 72.545 27.8C72.4917 28.4933 72.465 29.16 72.465 29.8C72.465 30.1733 72.4517 30.5867 72.425 31.04C72.425 31.4667 72.5717 31.8267 72.865 32.12C73.1583 32.4133 73.585 32.6133 74.145 32.72C74.705 32.8267 75.3183 32.8667 75.985 32.84ZM76.785 13.64C75.9583 13.6133 75.265 13.6 74.705 13.6C74.1717 13.5733 73.745 13.6133 73.425 13.72C73.1317 13.8 72.9183 14 72.785 14.32C72.6783 14.6133 72.6383 15.0667 72.665 15.68C72.665 16.1867 72.6517 16.6933 72.625 17.2C72.625 17.68 72.625 18.16 72.625 18.64C72.625 19.1733 72.7983 19.5733 73.145 19.84C73.4917 20.08 73.9183 20.2267 74.425 20.28C74.9583 20.3333 75.505 20.3333 76.065 20.28C76.6517 20.2267 77.1583 20.16 77.585 20.08C78.545 19.92 79.2783 19.6 79.785 19.12C80.3183 18.6133 80.625 17.88 80.705 16.92C80.8117 15.72 80.4917 14.8933 79.745 14.44C79.025 13.96 78.0383 13.6933 76.785 13.64ZM94.6506 18.92C95.5306 18.4933 96.4506 18.1867 97.4106 18C98.3706 17.8133 99.3173 17.7733 100.251 17.88C101.211 17.9867 102.131 18.24 103.011 18.64C103.917 19.04 104.744 19.6 105.491 20.32C106.104 20.9333 106.637 21.68 107.091 22.56C107.544 23.4133 107.877 24.2533 108.091 25.08C108.544 26.5467 108.611 28.0267 108.291 29.52C107.971 31.0133 107.424 32.4 106.651 33.68C106.277 34.2667 105.811 34.8 105.251 35.28C104.717 35.7333 104.144 36.1067 103.531 36.4C102.731 36.7733 101.864 37.0267 100.931 37.16C99.9973 37.32 99.0906 37.36 98.2106 37.28C96.6106 37.2 95.1973 36.8 93.9706 36.08C92.7706 35.36 91.7973 34.44 91.0506 33.32C90.3306 32.2 89.8506 30.9333 89.6106 29.52C89.3973 28.08 89.4906 26.6133 89.8906 25.12C90.3173 23.52 90.9306 22.2267 91.7306 21.24C92.5573 20.2267 93.5306 19.4533 94.6506 18.92ZM95.8506 24.28C95.4506 24.6533 95.144 25.12 94.9306 25.68C94.7173 26.24 94.584 26.8267 94.5306 27.44C94.4773 28.0267 94.5173 28.6267 94.6506 29.24C94.8106 29.8267 95.0506 30.36 95.3706 30.84C95.6373 31.24 96.1173 31.5733 96.8106 31.84C97.504 32.1067 98.224 32.2667 98.9706 32.32C99.824 32.3733 100.571 32.1467 101.211 31.64C101.851 31.1067 102.331 30.4533 102.651 29.68C102.997 28.9067 103.157 28.0667 103.131 27.16C103.104 26.2533 102.864 25.4267 102.411 24.68C102.091 24.1467 101.637 23.76 101.051 23.52C100.491 23.2533 99.8906 23.12 99.2506 23.12C98.6373 23.0933 98.024 23.1867 97.4106 23.4C96.7973 23.5867 96.2773 23.88 95.8506 24.28ZM133.238 33.32C133.531 33.8533 133.651 34.32 133.598 34.72C133.571 35.12 133.531 35.4533 133.478 35.72C133.398 36.0133 133.198 36.2667 132.878 36.48C132.585 36.6667 132.251 36.8133 131.878 36.92C131.398 37.0533 130.998 37.08 130.678 37C130.278 36.92 129.945 36.7867 129.678 36.6C129.518 36.4667 129.371 36.3467 129.238 36.24C129.105 36.1067 128.971 35.9867 128.838 35.88C128.705 35.7467 128.585 35.6267 128.478 35.52C128.371 35.4133 128.291 35.3067 128.238 35.2C128.185 35.0933 128.131 35.0267 128.078 35C128.051 34.9467 128.025 34.9067 127.998 34.88L122.678 27.2L117.398 34.88C117.371 34.9067 117.331 34.9467 117.278 35C117.251 35.0267 117.198 35.0933 117.118 35.2C117.065 35.3067 116.985 35.4133 116.878 35.52C116.798 35.6267 116.705 35.7467 116.598 35.88C116.465 35.9867 116.318 36.1067 116.158 36.24C115.998 36.3467 115.851 36.4667 115.718 36.6C115.558 36.7067 115.385 36.7867 115.198 36.84C115.038 36.8933 114.878 36.9467 114.718 37C114.371 37.08 113.998 37.0533 113.598 36.92C112.771 36.7333 112.198 36.3333 111.878 35.72C111.718 35.4 111.651 35.0667 111.678 34.72C111.705 34.3467 111.785 33.9733 111.918 33.6C112.078 33.2267 112.251 32.8667 112.438 32.52C112.651 32.1733 112.865 31.84 113.078 31.52C113.185 31.3867 113.278 31.2667 113.358 31.16C113.465 31.0533 113.571 30.9333 113.678 30.8C114.025 30.3467 114.358 29.8933 114.678 29.44C114.998 28.96 115.345 28.4533 115.718 27.92L119.438 22.52L113.958 14.6L113.478 13.92C113.371 13.76 113.265 13.6133 113.158 13.48C113.051 13.3467 112.945 13.1867 112.838 13C112.731 12.8667 112.625 12.72 112.518 12.56C112.411 12.4 112.318 12.2133 112.238 12C112.158 11.84 112.078 11.6933 111.998 11.56C111.945 11.4 111.891 11.2133 111.838 11C111.758 10.68 111.731 10.3867 111.758 10.12C111.838 9.77333 112.011 9.48 112.278 9.24C112.385 9.10666 112.505 9 112.638 8.92C112.798 8.84 112.945 8.76 113.078 8.68C113.345 8.57333 113.585 8.49333 113.798 8.44C114.011 8.38667 114.238 8.36 114.478 8.36C114.958 8.38667 115.411 8.56 115.838 8.88C116.371 9.22667 116.851 9.65333 117.278 10.16C117.465 10.4533 117.651 10.7333 117.838 11C118.025 11.24 118.225 11.4933 118.438 11.76L118.478 11.92C119.145 12.8 119.745 13.6533 120.278 14.48C120.838 15.28 121.451 16.1333 122.118 17.04C122.225 17.1733 122.318 17.3067 122.398 17.44C122.478 17.5733 122.571 17.7067 122.678 17.84C122.785 17.7067 122.878 17.5733 122.958 17.44C123.038 17.3067 123.131 17.1733 123.238 17.04C123.851 16.1333 124.438 15.28 124.998 14.48C125.585 13.6533 126.198 12.8 126.838 11.92L126.918 11.76C127.131 11.4933 127.331 11.24 127.518 11C127.731 10.7333 127.931 10.4533 128.118 10.16C128.545 9.65333 129.025 9.22667 129.558 8.88C129.958 8.56 130.411 8.38667 130.918 8.36C131.345 8.36 131.798 8.46667 132.278 8.68C132.598 8.86667 132.838 9.05333 132.998 9.24C133.318 9.48 133.518 9.77333 133.598 10.12C133.625 10.3867 133.598 10.68 133.518 11C133.465 11.2133 133.398 11.4 133.318 11.56C133.265 11.6933 133.171 11.84 133.038 12C132.878 12.4 132.705 12.7333 132.518 13C132.411 13.1867 132.305 13.3467 132.198 13.48C132.091 13.6133 131.998 13.76 131.918 13.92L131.438 14.6L125.918 22.52L129.638 27.92L131.798 30.96C132.038 31.36 132.278 31.7467 132.518 32.12C132.758 32.4933 132.998 32.8933 133.238 33.32Z" fill="white"/>
<g filter="url(#filter0_d_202_2)">
<path d="M41.5468 35.7236C102.52 55.426 123.991 52.7903 148.57 37.1506" stroke="white" stroke-width="2" stroke-linecap="round"/>
</g>
<defs>
<filter id="filter0_d_202_2" x="36.5466" y="30.7233" width="117.024" height="23.971" filterUnits="userSpaceOnUse" color-interpolation-filters="sRGB">
<feFlood flood-opacity="0" result="BackgroundImageFix"/>
<feColorMatrix in="SourceAlpha" type="matrix" values="0 0 0 0 0 0 0 0 0 0 0 0 0 0 0 0 0 0 127 0" result="hardAlpha"/>
<feOffset/>
<feGaussianBlur stdDeviation="2"/>
<feComposite in2="hardAlpha" operator="out"/>
<feColorMatrix type="matrix" values="0 0 0 0 0.0431373 0 0 0 0 0.584314 0 0 0 0 1 0 0 0 0.6 0"/>
<feBlend mode="normal" in2="BackgroundImageFix" result="effect1_dropShadow_202_2"/>
<feBlend mode="normal" in="SourceGraphic" in2="effect1_dropShadow_202_2" result="shape"/>
</filter>
</defs>
</svg>
